<?xml version="1.0" encoding="UTF-8"?>
<!-- Generator: Blender, SVG Export for Grease Pencil - v2.0 -->
<!DOCTYPE svg PUBLIC "-//W3C//DTD SVG 1.1//EN" "http://www.w3.org/Graphics/SVG/1.1/DTD/svg11.dtd">
<svg version="1.1" x="0px" y="0px" xmlns="http://www.w3.org/2000/svg" width="20.000000px" height="146.087769px" viewBox="0 0 20.000000 146.087769">
	<g id="blender_frame.37">
		<g id="blender_object.Best logo.svg.37.uuid_0x0">
			<g id="layer.layer1.uuid_0x1">
				<path d="M-10963889,10.056274 C -10963889,10.056274, -10963889,10.056274, -10963889,10.056274 C -10963889,52.048035, -10963889,94.039764, -10963889,136.0315 C -10963889,136.0315, -10963889,136.0315, -10963889,136.0315 C -10963889,94.039764, -10963889,52.048035, -10963889,10.056274 C -10963889,10.056274, -10963889,10.056274, -10963889,10.056274z" fill="#000018" stroke="none" fill-opacity="1" />
				<path d="M-10963889,89.53012 C -10963889,89.660065, -10963889,89.77255, -10963889,78.278625 C -10963889,66.78467, -10963889,66.78598, -10963889,78.150024 C -10963889,89.51404, -10963889,89.40024, -10963889,89.53012 C -10963889,89.53012, -10963889,89.53012, -10963889,89.53012 C -10963889,89.53012, -10963889,89.53012, -10963889,89.53012z" fill="#979500" stroke="none" fill-opacity="1" />
				<path d="M-10963889,91.8754 C -10963889,91.875305, -10963889,91.882416, -10963889,91.882324 C -10963889,91.8822, -10963889,91.88443, -10963889,91.88434 C -10963889,91.884186, -10963889,91.89105, -10963889,91.8909 C -10963889,91.89078, -10963889,91.89462, -10963889,91.8945 C -10963889,91.89438, -10963889,91.90051, -10963889,91.90036 C -10963889,91.90024, -10963889,91.90546, -10963889,91.905334 C -10963889,91.90518, -10963889,91.91025, -10963889,91.910095 C -10963889,91.90994, -10963889,91.91623, -10963889,91.91608 C -10963889,91.915955, -10963889,91.919586, -10963889,91.919464 C -10963889,91.91934, -10963889,91.92624, -10963889,91.92612 C -10963889,91.926025, -10963889,91.92801, -10963889,91.92789 C -10963889,91.927795, -10963889,91.934906, -10963889,91.934814 C -10963889,91.93472, -10963889,91.93497, -10963889,91.934875 C -10963889,91.934784, -10963889,91.94168, -10963889,91.94159 C -10963889,91.94153, -10963889,91.94, -10963889,91.93994 C -10963889,91.93988, -10963889,91.946106, -10963889,91.946045 C -10963889,91.946014, -10963889,91.94281, -10963889,91.94278 C -10963889,91.94275, -10963889,91.94791, -10963889,91.94791 C -10963889,91.94791, -10963889,91.94321, -10963889,91.94321 C -10963889,91.94321, -10963889,91.94699, -10963889,91.94702 C -10963889,91.94705, -10963889,91.94119, -10963889,91.94122 C -10963889,91.94125, -10963889,91.94342, -10963889,91.94348 C -10963889,91.94354, -10963889,91.93686, -10963889,91.93692 C -10963889,91.93701, -10963889,91.93741, -10963889,91.93747 C -10963889,91.93759, -10963889,91.93048, -10963889,91.9306 C -10963889,91.930695, -10963889,91.92932, -10963889,91.92944 C -10963889,91.929535, -10963889,91.922516, -10963889,91.92264 C -10963889,91.92276, -10963889,91.91968, -10963889,91.9198 C -10963889,91.91995, -10963889,91.91339, -10963889,91.91351 C -10963889,91.913666, -10963889,91.90909, -10963889,91.90924 C -10963889,91.90936, -10963889,91.90372, -10963889,91.90387 C -10963889,91.90399, -10963889,91.898224, -10963889,91.898346 C -10963889,91.8985, -10963889,91.894104, -10963889,91.894226 C -10963889,91.89438, -10963889,91.88776, -10963889,91.88785 C -10963889,91.888, -10963889,91.88513, -10963889,91.885254 C -10963889,91.885376, -10963889,91.878296, -10963889,91.87842 C -10963889,91.87854, -10963889,91.87741, -10963889,91.8775 C -10963889,91.877594, -10963889,91.870544, -10963889,91.870605 C -10963889,91.87073, -10963889,91.87137, -10963889,91.87143 C -10963889,91.87152, -10963889,91.8649, -10963889,91.86496 C -10963889,91.86502, -10963889,91.8674, -10963889,91.86746 C -10963889,91.86749, -10963889,91.861755, -10963889,91.861786 C -10963889,91.86182, -10963889,91.86578, -10963889,91.86578 C -10963889,91.865814, -10963889,91.8613, -10963889,91.8613 C -10963889,91.86127, -10963889,91.86661, -10963889,91.86661 C -10963889,91.86655, -10963889,91.863556, -10963889,91.863525 C -10963889,91.863495, -10963889,91.86981, -10963889,91.86975 C -10963889,91.86969, -10963889,91.86841, -10963889,91.86832 C -10963889,91.868256, -10963889,91.87518, -10963889,91.87509 C -10963889,91.87503, -10963889,91.87552, -10963889,91.8754 C -10963889,91.8754, -10963889,91.8754, -10963889,91.8754 C -10963889,91.8754, -10963889,91.8754, -10963889,91.8754z" fill="#000043" stroke="none" fill-opacity="1" />
				<path d="M-10963889,66.222565 C -10963889,78.15436, -10963889,78.61981, -10963889,78.61981 C -10963889,76.26749, -10963889,73.91516, -10963889,71.56287 C -10963889,70.799164, -10963889,70.03546, -10963889,69.27182 C -10963889,70.60358, -10963889,71.93536, -10963889,73.26712 C -10963889,70.516235, -10963889,67.76529, -10963889,65.01437 C -10963889,65.417114, -10963889,65.819824, -10963889,66.222565 C -10963889,66.222565, -10963889,66.222565, -10963889,66.222565z" fill="#3434FC" stroke="none" fill-opacity="0.951618612" />
				<path d="M-10963889,73.159454 C -10963889,61.1398, -10963889,60.67749, -10963889,60.67749 C -10963889,62.989014, -10963889,65.300476, -10963889,67.61194 C -10963889,68.382416, -10963889,69.15289, -10963889,69.9234 C -10963889,68.613556, -10963889,67.30374, -10963889,65.993866 C -10963889,68.76767, -10963889,71.54141, -10963889,74.315186 C -10963889,73.92993, -10963889,73.54471, -10963889,73.159454 C -10963889,73.159454, -10963889,73.159454, -10963889,73.159454z" fill="#FEFEFE" stroke="none" fill-opacity="0.984559774" />
			</g>
		</g>
	</g>
</svg>
